<svg xmlns="http://www.w3.org/2000/svg" xmlns:xlink="http://www.w3.org/1999/xlink" width="595" zoomAndPan="magnify" viewBox="0 0 446.25 446.249989" height="595" preserveAspectRatio="xMidYMid meet" version="1.0"><defs><clipPath id="1e2c07423a"><path d="M 0 0 L 445.5 0 L 445.5 445.5 L 0 445.5 Z M 0 0 " clip-rule="nonzero"/></clipPath></defs><g clip-path="url(#1e2c07423a)"><path fill="#ffffff" d="M 0 0 L 445.5 0 L 445.5 445.5 L 0 445.5 Z M 0 0 " fill-opacity="1" fill-rule="nonzero"/><path fill="#000000" d="M 0 0 L 445.5 0 L 445.5 445.5 L 0 445.5 Z M 0 0 " fill-opacity="1" fill-rule="nonzero"/></g><path fill="#ffb700" d="M 330.007812 220.109375 C 330.007812 237.046875 330.023438 253.988281 330.007812 270.925781 C 329.988281 289.703125 325.144531 307.179688 315.769531 323.417969 C 304.886719 342.269531 289.621094 356.488281 270.160156 366.160156 C 258.472656 371.972656 246.078125 375.429688 233.039062 376.636719 C 215.402344 378.273438 198.398438 375.796875 182.007812 369.109375 C 171.132812 364.667969 161.300781 358.523438 152.425781 350.808594 C 140.757812 340.675781 131.722656 328.582031 125.242188 314.578125 C 120.820312 305.023438 117.894531 295.003906 116.515625 284.570312 C 115.964844 280.386719 115.550781 276.140625 115.542969 271.929688 C 115.46875 237.332031 115.296875 202.726562 115.582031 168.128906 C 115.746094 147.425781 121.90625 128.367188 133.386719 111.085938 C 144.042969 95.039062 158.039062 82.75 175.242188 74.152344 C 186.167969 68.695312 197.753906 65.375 209.886719 63.832031 C 229.589844 61.332031 248.472656 64.363281 266.515625 72.355469 C 284.851562 80.484375 299.714844 92.945312 311.15625 109.460938 C 319.765625 121.890625 325.429688 135.535156 328.25 150.367188 C 329.464844 156.714844 330.039062 163.121094 330.023438 169.585938 C 329.980469 186.425781 330.007812 203.257812 330.007812 220.09375 Z M 322.511719 220.109375 C 322.511719 203.429688 322.585938 186.746094 322.480469 170.066406 C 322.40625 158.636719 320.542969 147.488281 316.621094 136.71875 C 309.195312 116.347656 296.496094 100.015625 278.625 87.824219 C 264.832031 78.417969 249.535156 72.925781 232.882812 71.257812 C 218.65625 69.835938 204.746094 71.300781 191.222656 75.851562 C 173.394531 81.84375 158.367188 92.070312 146.347656 106.550781 C 131.125 124.886719 123.320312 146.027344 123.238281 169.863281 C 123.117188 203.375 123.183594 236.898438 123.238281 270.417969 C 123.238281 274.375 123.433594 278.371094 123.933594 282.292969 C 125.496094 294.574219 129.164062 306.210938 135.078125 317.117188 C 142.457031 330.722656 152.425781 342.082031 165.035156 351.035156 C 180.21875 361.8125 197.132812 367.902344 215.753906 369.226562 C 228.140625 370.101562 240.277344 368.777344 252.125 365.105469 C 269.554688 359.691406 284.425781 350.210938 296.699219 336.679688 C 305.859375 326.578125 312.648438 315.074219 317.101562 302.1875 C 320.84375 291.355469 322.488281 280.183594 322.511719 268.757812 C 322.535156 252.539062 322.511719 236.320312 322.511719 220.109375 Z M 322.511719 220.109375 " fill-opacity="1" fill-rule="nonzero"/><path fill="#ffb700" d="M 31.222656 250.628906 L 31.222656 237.75 L 37.875 237.75 L 37.875 202.457031 L 31.273438 202.457031 L 31.273438 189.425781 L 32.757812 189.425781 C 49.640625 189.425781 66.53125 189.410156 83.414062 189.472656 C 84.238281 189.472656 85.234375 189.890625 85.847656 190.4375 C 87.921875 192.292969 89.890625 194.277344 91.828125 196.28125 C 92.230469 196.699219 92.507812 197.425781 92.515625 198.019531 C 92.566406 202.867188 92.613281 207.726562 92.484375 212.574219 C 92.464844 213.539062 91.765625 214.535156 91.25 215.433594 C 90.511719 216.71875 89.011719 219.183594 89.011719 219.183594 C 89.011719 219.183594 90.421875 221.710938 91.304688 222.902344 C 92.203125 224.097656 92.605469 225.34375 92.574219 226.882812 C 92.476562 231.734375 92.5 236.589844 92.5625 241.445312 C 92.574219 242.71875 92.304688 243.671875 91.3125 244.554688 C 89.34375 246.296875 87.53125 248.210938 85.59375 250 C 85.1875 250.375 84.539062 250.691406 84.007812 250.691406 C 66.652344 250.726562 49.304688 250.71875 31.949219 250.710938 C 31.753906 250.710938 31.550781 250.667969 31.207031 250.628906 Z M 51.398438 213.472656 L 78.960938 213.472656 L 78.960938 202.507812 L 51.398438 202.507812 Z M 51.375 237.609375 L 79 237.609375 L 79 226.726562 L 51.375 226.726562 Z M 51.375 237.609375 " fill-opacity="1" fill-rule="nonzero"/><path fill="#ffb700" d="M 138.542969 220.042969 C 138.542969 203.625 138.527344 187.195312 138.542969 170.777344 C 138.5625 149.074219 145.734375 130.050781 160.253906 113.914062 C 173.492188 99.199219 189.957031 90.101562 209.535156 87.167969 C 235.308594 83.304688 258.328125 89.824219 278.183594 106.8125 C 290.144531 117.042969 298.390625 129.855469 303.203125 144.824219 C 305.582031 152.214844 307.003906 159.820312 307.011719 167.609375 C 307.050781 202.523438 307.078125 237.429688 306.996094 272.339844 C 306.972656 283.515625 304.296875 294.164062 299.761719 304.355469 C 295.492188 313.9375 289.632812 322.4375 282.15625 329.757812 C 268.777344 342.863281 252.804688 350.847656 234.1875 353.367188 C 217.757812 355.597656 202.019531 353.203125 187.023438 346.183594 C 173.769531 339.988281 162.886719 330.886719 154.324219 318.996094 C 147.222656 309.140625 142.375 298.28125 140.195312 286.359375 C 139.214844 281.007812 138.691406 275.515625 138.625 270.082031 C 138.429688 253.40625 138.550781 236.726562 138.550781 220.042969 Z M 146.167969 220.214844 C 146.167969 236.539062 146.046875 252.859375 146.234375 269.175781 C 146.296875 274.457031 146.773438 279.808594 147.769531 284.988281 C 150.890625 301.242188 158.75 314.960938 170.910156 326.195312 C 184.261719 338.519531 200.113281 345.128906 218.15625 346.402344 C 227.007812 347.023438 235.765625 345.96875 244.304688 343.445312 C 258.359375 339.285156 270.289062 331.753906 280.046875 320.835938 C 287.292969 312.730469 292.539062 303.472656 295.875 293.109375 C 298.511719 284.921875 299.542969 276.515625 299.542969 267.96875 C 299.566406 237.136719 299.574219 206.304688 299.527344 175.46875 C 299.527344 171.089844 299.355469 166.699219 298.980469 162.335938 C 298.136719 152.449219 295.238281 143.117188 290.53125 134.421875 C 282.054688 118.734375 269.660156 107.171875 253.269531 100.03125 C 240.300781 94.382812 226.753906 92.539062 212.722656 94.382812 C 201.085938 95.90625 190.34375 99.90625 180.578125 106.398438 C 168.253906 114.601562 159.003906 125.460938 152.886719 138.960938 C 148.195312 149.320312 146.121094 160.210938 146.160156 171.554688 C 146.210938 187.773438 146.175781 203.992188 146.175781 220.207031 Z M 146.167969 220.214844 " fill-opacity="1" fill-rule="nonzero"/><path fill="#ffb700" d="M 161.601562 220.050781 C 161.601562 203.472656 161.613281 186.898438 161.601562 170.320312 C 161.585938 152.882812 168.011719 138.132812 180.429688 126.066406 C 189.867188 116.894531 201.242188 111.339844 214.359375 109.6875 C 234.671875 107.117188 252.214844 113.0625 266.660156 127.527344 C 276.125 137.007812 281.753906 148.566406 283.480469 161.902344 C 283.878906 164.953125 284.066406 168.058594 284.074219 171.144531 C 284.109375 204.191406 284.15625 237.242188 284.074219 270.289062 C 284.035156 286.304688 278.378906 300.21875 267.445312 311.894531 C 257.648438 322.347656 245.546875 328.597656 231.371094 330.59375 C 205.074219 334.308594 179.636719 320.820312 167.796875 296.957031 C 163.808594 288.910156 161.628906 280.363281 161.621094 271.332031 C 161.621094 254.238281 161.621094 237.144531 161.621094 220.050781 Z M 169.105469 219.894531 C 169.105469 236.46875 169.046875 253.054688 169.152344 269.632812 C 169.171875 273.171875 169.480469 276.769531 170.160156 280.242188 C 174.613281 302.988281 193.519531 320.550781 216.398438 323.179688 C 228.789062 324.601562 240.433594 322.101562 251.054688 315.484375 C 260.984375 309.296875 268.179688 300.726562 272.617188 289.867188 C 275.300781 283.289062 276.523438 276.410156 276.53125 269.347656 C 276.566406 237.269531 276.558594 205.203125 276.53125 173.125 C 276.53125 170.089844 276.394531 167.035156 276.050781 164.027344 C 274.695312 152.148438 269.875 141.785156 261.53125 133.261719 C 249.101562 120.566406 233.910156 115.132812 216.203125 117.148438 C 204.601562 118.464844 194.507812 123.269531 186.066406 131.269531 C 174.6875 142.054688 169.171875 155.464844 169.121094 171.089844 C 169.0625 187.359375 169.105469 203.632812 169.105469 219.902344 Z M 169.105469 219.894531 " fill-opacity="1" fill-rule="nonzero"/><path fill="#ffb700" d="M 208.539062 237.75 L 215.976562 237.75 L 215.976562 202.507812 L 205.679688 202.507812 L 205.679688 208.824219 L 192.320312 208.824219 L 192.320312 189.53125 L 253.285156 189.53125 L 253.285156 208.855469 L 240.074219 208.855469 L 240.074219 202.507812 L 229.636719 202.507812 L 229.636719 237.699219 L 236.175781 237.699219 L 236.175781 250.613281 L 208.539062 250.613281 Z M 208.539062 237.75 " fill-opacity="1" fill-rule="nonzero"/><path fill="#ffb700" d="M 413.621094 231.957031 C 409.511719 230.632812 405.378906 229.390625 400.941406 228.035156 L 400.941406 237.652344 L 366.589844 237.652344 L 366.589844 237.621094 C 366.597656 225.886719 366.597656 214.25 366.597656 202.515625 L 400.957031 202.515625 L 400.957031 212.132812 C 405.386719 210.777344 409.527344 209.535156 413.636719 208.210938 C 413.933594 208.113281 414.226562 207.449219 414.234375 207.042969 C 414.285156 204.515625 414.292969 201.984375 414.234375 199.457031 C 414.21875 198.960938 413.957031 198.355469 413.613281 198.003906 C 410.941406 195.347656 408.246094 192.710938 405.5 190.128906 C 405.074219 189.726562 404.339844 189.457031 403.75 189.449219 C 390.417969 189.410156 377.097656 189.410156 363.769531 189.449219 C 363.214844 189.449219 362.527344 189.671875 362.128906 190.039062 C 359.308594 192.691406 356.53125 195.390625 353.792969 198.128906 C 353.449219 198.476562 353.21875 199.109375 353.21875 199.613281 C 353.1875 213.261719 353.1875 226.914062 353.226562 240.5625 L 353.203125 240.5625 C 353.203125 240.632812 353.21875 240.699219 353.226562 240.757812 C 353.226562 241.296875 353.226562 241.835938 353.226562 242.375 C 353.226562 242.996094 353.605469 243.753906 354.054688 244.207031 C 355.851562 246.066406 357.773438 247.792969 359.578125 249.632812 C 360.355469 250.429688 361.15625 250.75 362.296875 250.75 C 375.625 250.78125 390.414062 250.757812 403.742188 250.71875 C 404.332031 250.71875 405.066406 250.441406 405.492188 250.039062 C 408.238281 247.464844 410.941406 244.828125 413.605469 242.164062 C 413.957031 241.8125 414.21875 241.207031 414.226562 240.714844 C 414.285156 238.183594 414.277344 235.65625 414.226562 233.125 C 414.21875 232.722656 413.925781 232.054688 413.628906 231.957031 Z M 413.621094 231.957031 " fill-opacity="1" fill-rule="nonzero"/></svg>